<?xml version="1.0" encoding="utf-8"?>
<!-- Generator: Adobe Illustrator 25.0.1, SVG Export Plug-In . SVG Version: 6.00 Build 0)  -->
<svg version="1.1" id="Layer_1" xmlns="http://www.w3.org/2000/svg" xmlns:xlink="http://www.w3.org/1999/xlink" x="0px" y="0px"
	 viewBox="0 0 1000 1000" style="enable-background:new 0 0 1000 1000;" xml:space="preserve">
<style type="text/css">
	.st0{fill:url(#SVGID_1_);}
	.st1{fill:url(#SVGID_2_);}
	.st2{fill:url(#SVGID_3_);}
	.st3{fill:url(#SVGID_7_);}
	.st4{fill:url(#SVGID_8_);}
	.st5{clip-path:url(#SVGID_9_);fill:url(#SVGID_10_);}
	.st6{clip-path:url(#SVGID_11_);fill:url(#SVGID_12_);}
	.st7{clip-path:url(#SVGID_13_);fill:url(#SVGID_14_);}
</style>
<g>
	<linearGradient id="SVGID_1_" gradientUnits="userSpaceOnUse" x1="2.4924" y1="500" x2="506.962" y2="500">
		<stop  offset="0" style="stop-color:#564E9F"/>
		<stop  offset="0.5158" style="stop-color:#9960A7"/>
		<stop  offset="1" style="stop-color:#56B4E0"/>
	</linearGradient>
	<path class="st0" d="M398,11.3C332.8,25,271.8,51.3,216.6,89.5C161.4,127.8,115.4,175.7,79.7,232C45.3,286.3,22,346.1,10.5,409.6
		C-11.3,530.3,11.8,653.8,75.7,758c-3.1,5.7-2.9,12.7,0.8,18.3c5.4,8.3,16.6,10.6,24.8,5.1c4-2.6,6.7-6.7,7.7-11.3
		c1-4.7,0.1-9.5-2.6-13.5c-3.6-5.6-9.9-8.5-16.3-8C28.6,648.2,6.4,529,27.5,412.7c22.9-126.2,93.5-236,199-309
		c105.4-73.1,233-100.7,359.2-77.8c126.2,22.9,236,93.5,309,199c73.1,105.4,100.7,233,77.8,359.2c-22.9,126.2-93.5,236-199,309
		c-97.1,67.3-214.8,96.4-331.8,82c-2.2-6-7.5-10.5-14-11.5c-4.7-0.7-9.5,0.4-13.3,3.2c-3.9,2.8-6.4,7-7.2,11.7
		c-0.7,4.7,0.4,9.5,3.2,13.3c2.8,3.9,7,6.4,11.7,7.2c0.9,0.1,1.9,0.2,2.8,0.2c5.6,0,10.9-2.7,14.3-7.1c20.4,2.5,40.8,3.8,61.2,3.8
		c100.6,0,199.2-30.6,283-88.7c55.2-38.3,101.2-86.2,136.9-142.4c34.4-54.3,57.7-114.1,69.2-177.7c11.5-63.6,10.7-127.7-2.5-190.7
		c-13.6-65.2-39.9-126.2-78.2-181.4c-38.3-55.2-86.2-101.2-142.4-136.9C712,43.7,652.3,20.4,588.7,8.9C525.1-2.6,461-1.8,398,11.3z"
		/>
	<linearGradient id="SVGID_2_" gradientUnits="userSpaceOnUse" x1="1.766" y1="498.341" x2="506.2356" y2="498.341">
		<stop  offset="0" style="stop-color:#564E9F"/>
		<stop  offset="0.5158" style="stop-color:#9960A7"/>
		<stop  offset="1" style="stop-color:#56B4E0"/>
	</linearGradient>
	<path class="st1" d="M849.3,198.7c-40.4-47.2-88.9-85-144.1-112.4C652,59.8,594.7,44.1,535.1,39.5c-59.6-4.6-118.6,2.3-175.2,20.4
		c-58.7,18.7-112.4,48.7-159.5,89.2c-47.2,40.4-85,88.9-112.4,144.1c-26.5,53.3-42.3,110.5-46.8,170.1
		c-4.6,59.6,2.3,118.6,20.4,175.2c18.7,58.7,48.7,112.4,89.2,159.5c7.8,9.1,16,18,24.4,26.3c35,35,75.3,64,119.7,86.1
		c53.3,26.5,110.5,42.3,170.1,46.8c11.8,0.9,23.6,1.4,35.4,1.4c100,0,197.2-32.5,277.3-93.1c6,2.5,13,1.6,18.2-2.6
		c3.7-3,6-7.3,6.5-12.1c0.5-4.8-0.9-9.4-3.9-13.1c-6.2-7.7-17.6-8.8-25.2-2.6c-5.1,4.2-7.4,10.7-6.3,17
		c-86.1,65.1-192.7,96.3-300.7,88.1c-118-9-225.4-63.5-302.4-153.3c-77-89.8-114.5-204.3-105.4-322.2c9-118,63.5-225.4,153.3-302.4
		c89.8-77,204.2-114.5,322.2-105.4c118,9,225.4,63.5,302.4,153.3c70.4,82.1,108.2,186.5,106.7,294.4c-5.9,2.8-10,8.8-10.2,15.7
		c-0.3,9.9,7.5,18.2,17.4,18.4c10,0.2,18.2-7.5,18.4-17.4c0.2-6.5-3.1-12.4-8.4-15.7C961.9,393,922.6,284.2,849.3,198.7z"/>
	<linearGradient id="SVGID_3_" gradientUnits="userSpaceOnUse" x1="1.766" y1="498.3483" x2="506.2356" y2="498.3483">
		<stop  offset="0" style="stop-color:#564E9F"/>
		<stop  offset="0.5158" style="stop-color:#9960A7"/>
		<stop  offset="1" style="stop-color:#56B4E0"/>
	</linearGradient>
	<path class="st2" d="M107,547.8c-0.7-4.7-3.2-8.9-7-11.8c-3.8-2.9-8.6-4.1-13.3-3.4c-4.7,0.7-8.9,3.2-11.8,7
		c-2.9,3.8-4.1,8.6-3.4,13.3c0.9,6.4,5.3,11.7,11.1,14c14.4,87.8,55.1,167.3,117.9,230.2c9.7,9.7,19.9,19,30.5,27.7
		c44.1,36.3,93.9,62.9,148.2,79c39.2,11.7,79.5,17.5,120.1,17.5c13.7,0,27.5-0.7,41.3-2c54.7-5.3,107-20.8,155.4-46.1
		c50.2-26.2,94-61.9,130.3-106c36.3-44.1,62.9-93.9,79-148.2c15.6-52.4,20.8-106.7,15.5-161.4c-5.3-54.7-20.8-107-46.1-155.4
		c-26.2-50.2-61.9-94-106-130.3c-44.1-36.3-93.9-62.9-148.2-79C568.2,77.3,513.9,72,459.3,77.3c-102.2,9.9-196.9,56.3-267,130.8
		c-6.4-1.5-13.2,0.6-17.6,5.7c-6.5,7.5-5.7,18.8,1.8,25.3c7.5,6.5,18.8,5.7,25.3-1.8c4.3-5,5.5-11.7,3.3-17.7
		c67.3-71.3,158-115.7,255.8-125.2c107.9-10.4,213.4,21.8,297,90.7c83.7,68.9,135.5,166.3,145.9,274.1
		c10.4,107.9-21.8,213.4-90.7,297C744.3,840,646.9,891.8,539,902.2c-107.9,10.4-213.4-21.8-297-90.7
		C166.2,749.1,115.8,661.7,99.7,565C105.1,561.1,108,554.5,107,547.8z"/>
	<linearGradient id="SVGID_7_" gradientUnits="userSpaceOnUse" x1="1.766" y1="502.7733" x2="506.2356" y2="502.7733">
		<stop  offset="0" style="stop-color:#564E9F"/>
		<stop  offset="0.5158" style="stop-color:#9960A7"/>
		<stop  offset="1" style="stop-color:#56B4E0"/>
	</linearGradient>
	<path class="st3" d="M492.5,893C492.6,893,492.6,893,492.5,893c6.5,0,12.4-3.5,15.5-9c92.5-1.9,181.2-37,250.1-99
		c76.6-69,121.7-163.6,127-266.5c5.4-102.9-29.6-201.7-98.6-278.3c-69-76.6-163.6-121.7-266.5-127c-102.9-5.4-201.7,29.6-278.3,98.6
		c-76.6,69-121.7,163.6-127.1,266.5c-4.8,92.6,23.7,183.6,80.5,256.6c-2.2,5.9-1.2,12.7,2.8,17.7c3,3.7,7.3,6,12.1,6.5
		c4.8,0.5,9.4-0.9,13.2-3.9c7.7-6.2,8.8-17.6,2.6-25.2c-4.3-5.3-11.1-7.5-17.5-6.2c-53.9-69.6-81-156.3-76.4-244.5
		c5.1-98.3,48.2-188.7,121.4-254.6c73.1-65.9,167.5-99.3,265.9-94.2c98.3,5.1,188.7,48.2,254.6,121.4
		c65.9,73.1,99.3,167.6,94.2,265.9c-5.1,98.3-48.2,188.7-121.4,254.6c-65.6,59.1-150,92.6-238.1,94.6c-3-5.8-9.1-9.6-15.8-9.7
		c0,0-0.1,0-0.1,0c-9.8,0-17.9,8-17.9,17.8c0,4.8,1.8,9.3,5.2,12.7C483.3,891.1,487.7,892.9,492.5,893z"/>
	<linearGradient id="SVGID_8_" gradientUnits="userSpaceOnUse" x1="1.766" y1="498.3581" x2="506.2356" y2="498.3581">
		<stop  offset="0" style="stop-color:#564E9F"/>
		<stop  offset="0.5158" style="stop-color:#9960A7"/>
		<stop  offset="1" style="stop-color:#56B4E0"/>
	</linearGradient>
	<path class="st4" d="M703.1,249c3.8,3,8.4,4.3,13.2,3.8c4.8-0.5,9-2.9,12-6.7c6.1-7.7,4.9-19-2.9-25.2c-5.1-4.1-12-4.9-17.9-2.6
		c-66.3-49.2-148-73.2-230.6-67.8c-92.9,6.2-177.8,48.1-239.1,118.2c-61.3,70-91.7,159.8-85.5,252.7c5.6,84.3,41.4,163.5,101,223
		c5.5,5.5,11.3,10.9,17.2,16.1c64.1,56.1,144.7,86.3,229.1,86.3c7.8,0,15.7-0.3,23.6-0.8c92.9-6.2,177.8-48.1,239.1-118.2
		c54.6-62.3,85.1-141.9,86.3-224.4c5.4-3.2,8.9-9.2,8.8-15.7c-0.2-9.9-8.4-17.9-18.2-17.6c-4.8,0.1-9.3,2-12.6,5.5
		c-3.3,3.4-5.1,8-5.1,12.8c0.1,6.7,4,12.7,9.8,15.7c-1.3,78.2-30.3,153.5-82,212.5c-58.3,66.6-139,106.5-227.3,112.3
		c-88.3,5.9-173.6-23-240.2-81.3c-66.6-58.3-106.5-139-112.3-227.3c-5.9-88.3,23-173.6,81.3-240.2c58.3-66.6,139-106.5,227.3-112.3
		c78.2-5.2,155.7,17.5,218.6,64C695.4,238.1,697.8,244.8,703.1,249z"/>
	<g>
		<g>
			<g>
				<defs>
					<path id="SVGID_6_" d="M322.4,348.9c-32.9,2.8-60.7,15.9-83.9,39.7s-35.7,52.2-37.4,85.1c-2.3,38,10.2,70.9,36.3,98.7
						c12.5,13,26.7,23.3,43.1,30.1c17,7.4,34.6,11.3,53.3,11.3c26.1,0,50.5-7.4,72-21.6c4.5-2.8,5.7-8.5,2.8-13l-15.3-22.7
						c-2.8-4.5-8.5-5.7-13-2.8c-14.2,9.1-29.5,13.6-46.5,13.6c-23.8,0-44.2-8.5-61.2-25.5s-25.5-37.4-25-61.8
						c0.6-22.1,7.9-41.4,23.3-57.8c15.3-16.4,34-25.5,56.1-27.2c19.3-1.7,37.4,2.8,53.3,13.6c2.8,1.7,5.7,1.7,7.4,1.1s4-1.1,5.7-4
						l15.3-22.7c2.8-4.5,1.7-10.2-2.8-13c-21.6-14.2-45.9-21.6-71.5-21.6C329.8,348.3,326.4,348.3,322.4,348.9"/>
				</defs>
				<clipPath id="SVGID_9_">
					<use xlink:href="#SVGID_6_"  style="overflow:visible;"/>
				</clipPath>
				<linearGradient id="SVGID_10_" gradientUnits="userSpaceOnUse" x1="-4.9935" y1="480.7442" x2="499.4761" y2="480.7442">
					<stop  offset="0" style="stop-color:#564E9F"/>
					<stop  offset="0.5158" style="stop-color:#9960A7"/>
					<stop  offset="1" style="stop-color:#56B4E0"/>
				</linearGradient>
				<polygon class="st5" points="198.8,346.1 413.7,348.3 410.9,615.4 196,613.2 				"/>
			</g>
		</g>
		<g>
			<g>
				<defs>
					<path id="SVGID_5_" d="M467.8,348.3c-5.7,0-9.6,4-9.6,9.6v245.6c0,5.7,4,9.6,9.6,9.6h27.2c5.7,0,9.6-4,9.6-9.6V358
						c0-5.7-4-9.6-9.6-9.6H467.8z"/>
				</defs>
				<clipPath id="SVGID_11_">
					<use xlink:href="#SVGID_5_"  style="overflow:visible;"/>
				</clipPath>
				<linearGradient id="SVGID_12_" gradientUnits="userSpaceOnUse" x1="-4.9935" y1="480.7442" x2="499.4761" y2="480.7442">
					<stop  offset="0" style="stop-color:#564E9F"/>
					<stop  offset="0.5158" style="stop-color:#9960A7"/>
					<stop  offset="1" style="stop-color:#56B4E0"/>
				</linearGradient>
				<polygon class="st6" points="458.2,347.8 507.5,348.3 504.7,613.7 455.9,613.2 				"/>
			</g>
		</g>
		<g>
			<g>
				<defs>
					<path id="SVGID_4_" d="M761.7,348.3c-4,0-7.4,1.7-9.6,4.5l-80.5,89.6l-80-89.6c-2.8-2.8-6.2-4.5-9.6-4.5h-10.2
						c-5.7,0-9.6,4-9.6,9.6v245.6c0,5.7,4,9.6,9.6,9.6h26.1c5.7,0,9.6-4,9.6-9.6V437.4l57.8,64.7c1.7,2.3,4,3.4,6.8,3.4
						c1.7,0,4.5-0.6,7.4-3.4l57.8-64.7v166.7c0,5.7,4,9.6,9.6,9.6H773c5.7,0,9.6-4,9.6-9.6V358c0-5.7-4-9.6-9.6-9.6H761.7z"/>
				</defs>
				<clipPath id="SVGID_13_">
					<use xlink:href="#SVGID_4_"  style="overflow:visible;"/>
				</clipPath>
				<linearGradient id="SVGID_14_" gradientUnits="userSpaceOnUse" x1="-4.9935" y1="480.7442" x2="499.4761" y2="480.7442">
					<stop  offset="0" style="stop-color:#564E9F"/>
					<stop  offset="0.5158" style="stop-color:#9960A7"/>
					<stop  offset="1" style="stop-color:#56B4E0"/>
				</linearGradient>
				<polygon class="st7" points="562.1,346.1 783.8,348.3 781,615.4 559.2,613.2 				"/>
			</g>
		</g>
	</g>
</g>
</svg>
