<?xml version="1.0" encoding="utf-8"?>
<!-- Generator: Adobe Illustrator 25.0.1, SVG Export Plug-In . SVG Version: 6.00 Build 0)  -->
<svg version="1.1" id="Layer_1" xmlns="http://www.w3.org/2000/svg" xmlns:xlink="http://www.w3.org/1999/xlink" x="0px" y="0px"
	 viewBox="0 0 998.3 165.2" style="enable-background:new 0 0 998.3 165.2;" xml:space="preserve">
<style type="text/css">
	.st0{fill:url(#SVGID_1_);}
	.st1{fill:url(#SVGID_2_);}
	.st2{fill:url(#SVGID_3_);}
	.st3{fill:url(#SVGID_4_);}
	.st4{fill:url(#SVGID_5_);}
	.st5{clip-path:url(#SVGID_7_);fill:url(#SVGID_8_);}
	.st6{clip-path:url(#SVGID_10_);fill:url(#SVGID_11_);}
	.st7{clip-path:url(#SVGID_13_);fill:url(#SVGID_14_);}
	.st8{clip-path:url(#SVGID_15_);fill:url(#SVGID_16_);}
	.st9{clip-path:url(#SVGID_17_);fill:url(#SVGID_18_);}
	.st10{clip-path:url(#SVGID_19_);fill:url(#SVGID_20_);}
	.st11{clip-path:url(#SVGID_21_);fill:url(#SVGID_22_);}
	.st12{clip-path:url(#SVGID_23_);fill:url(#SVGID_24_);}
	.st13{clip-path:url(#SVGID_25_);fill:url(#SVGID_26_);}
	.st14{clip-path:url(#SVGID_27_);fill:url(#SVGID_28_);}
	.st15{clip-path:url(#SVGID_29_);fill:url(#SVGID_30_);}
	.st16{clip-path:url(#SVGID_31_);fill:url(#SVGID_32_);}
	.st17{clip-path:url(#SVGID_33_);fill:url(#SVGID_34_);}
	.st18{clip-path:url(#SVGID_35_);fill:url(#SVGID_36_);}
	.st19{clip-path:url(#SVGID_37_);fill:url(#SVGID_38_);}
	.st20{clip-path:url(#SVGID_39_);fill:url(#SVGID_40_);}
	.st21{clip-path:url(#SVGID_41_);fill:url(#SVGID_42_);}
	.st22{clip-path:url(#SVGID_43_);fill:url(#SVGID_44_);}
	.st23{clip-path:url(#SVGID_45_);fill:url(#SVGID_46_);}
	.st24{clip-path:url(#SVGID_47_);fill:url(#SVGID_48_);}
	.st25{clip-path:url(#SVGID_49_);fill:url(#SVGID_50_);}
	.st26{clip-path:url(#SVGID_51_);fill:url(#SVGID_52_);}
	.st27{clip-path:url(#SVGID_53_);fill:url(#SVGID_54_);}
	.st28{clip-path:url(#SVGID_55_);fill:url(#SVGID_56_);}
</style>
<g>
	<g>
		
			<linearGradient id="SVGID_1_" gradientUnits="userSpaceOnUse" x1="0" y1="195.4129" x2="83.4295" y2="195.4129" gradientTransform="matrix(1 0 0 -1 -1.818989e-12 278)">
			<stop  offset="0" style="stop-color:#564E9F"/>
			<stop  offset="0.5158" style="stop-color:#9960A7"/>
			<stop  offset="1" style="stop-color:#56B4E0"/>
		</linearGradient>
		<path class="st0" d="M65.4,1.7C54.6,4,44.5,8.3,35.4,14.7C26.3,21,18.7,28.9,12.8,38.2c-5.7,9-9.5,18.9-11.4,29.4
			c-3.6,19.9,0.2,40.4,10.8,57.6c-0.5,1-0.5,2.1,0.1,3c0.9,1.4,2.8,1.7,4.1,0.8c0.7-0.4,1.1-1.1,1.3-1.9c0.2-0.8,0-1.6-0.4-2.2
			c-0.6-0.9-1.6-1.4-2.7-1.3C4.3,107.1,0.7,87.3,4.2,68.1c3.8-20.9,15.5-39,32.9-51.1S75.6,0.3,96.5,4.1s39,15.5,51.1,32.9
			s16.7,38.5,12.9,59.4c-3.8,20.9-15.5,39-32.9,51.1c-16.1,11.1-35.5,16-54.9,13.5c-0.4-1-1.3-1.7-2.3-1.9c-0.8-0.1-1.6,0.1-2.2,0.5
			c-0.7,0.5-1.1,1.1-1.2,1.9c-0.1,0.8,0.1,1.6,0.5,2.2c0.5,0.7,1.1,1.1,1.9,1.2c0.2,0,0.3,0.1,0.5,0.1c0.9,0,1.8-0.4,2.3-1.2
			c3.4,0.4,6.7,0.6,10.1,0.6c16.6,0,32.9-5.1,46.8-14.7c9.2-6.3,16.7-14.3,22.6-23.5c5.7-9,9.6-18.8,11.4-29.4
			c1.9-10.5,1.7-21.1-0.4-31.5c-2.2-10.8-6.6-20.9-12.9-30c-6.3-9.2-14.3-16.7-23.5-22.6c-9-5.7-18.8-9.5-29.4-11.4
			C86.5-0.6,75.8-0.4,65.4,1.7z"/>
		
			<linearGradient id="SVGID_2_" gradientUnits="userSpaceOnUse" x1="-0.1224" y1="195.7254" x2="83.3071" y2="195.7254" gradientTransform="matrix(1 0 0 -1 -1.818989e-12 278)">
			<stop  offset="0" style="stop-color:#564E9F"/>
			<stop  offset="0.5158" style="stop-color:#9960A7"/>
			<stop  offset="1" style="stop-color:#56B4E0"/>
		</linearGradient>
		<path class="st1" d="M140,32.7c-6.7-7.8-14.7-14-23.8-18.6c-8.8-4.4-18.3-7-28.1-7.8c-9.9-0.8-19.6,0.4-29,3.4
			c-9.7,3.1-18.6,8.1-26.4,14.7c-7.8,6.7-14.1,14.7-18.6,23.8c-4.4,8.8-7,18.3-7.8,28.1c-0.8,9.9,0.4,19.6,3.4,29
			c3.1,9.7,8.1,18.6,14.7,26.4c1.3,1.5,2.6,2.9,4,4.3c5.8,5.9,12.5,10.7,19.8,14.3c8.8,4.4,18.3,7,28.1,7.8c1.9,0.1,3.9,0.2,5.8,0.2
			c16.6,0,32.6-5.4,45.9-15.4c1,0.4,2.2,0.2,3-0.4c0.6-0.5,1-1.2,1.1-2c0.1-0.8-0.2-1.6-0.7-2.2c-1-1.3-2.9-1.4-4.2-0.4
			c-0.8,0.7-1.2,1.7-1,2.8c-14.3,10.8-31.8,16-49.7,14.6c-19.5-1.6-37.3-10.6-50-25.5S7.8,96.2,9.2,76.7c1.5-19.5,10.5-37.3,25.3-50
			S68.3,7.7,87.8,9.2c19.5,1.5,37.3,10.5,50,25.3c11.6,13.6,17.9,30.8,17.6,48.7c-1,0.5-1.7,1.4-1.7,2.6c-0.1,1.6,1.3,3,2.9,3.1
			c1.6,0.1,3-1.3,3.1-2.9c0.1-1.1-0.5-2-1.4-2.6C158.7,64.9,152.2,46.9,140,32.7z"/>
		
			<linearGradient id="SVGID_3_" gradientUnits="userSpaceOnUse" x1="-0.1224" y1="195.7033" x2="83.3071" y2="195.7033" gradientTransform="matrix(1 0 0 -1 -1.818989e-12 278)">
			<stop  offset="0" style="stop-color:#564E9F"/>
			<stop  offset="0.5158" style="stop-color:#9960A7"/>
			<stop  offset="1" style="stop-color:#56B4E0"/>
		</linearGradient>
		<path class="st2" d="M17.3,90.5c-0.1-0.8-0.5-1.5-1.1-1.9c-0.7-0.5-1.4-0.7-2.2-0.5c-0.8,0.1-1.5,0.5-1.9,1.1
			c-0.5,0.7-0.7,1.4-0.5,2.2c0.2,1,0.8,1.9,1.8,2.3c2.3,14.5,9.1,27.7,19.5,38c1.6,1.6,3.3,3.1,5.1,4.6c7.3,6,15.5,10.4,24.5,13.1
			c6.5,1.9,13.1,2.9,19.9,2.9c2.3,0,4.5-0.1,6.8-0.3c9-0.9,17.7-3.4,25.7-7.6c8.3-4.3,15.5-10.2,21.6-17.5
			c6-7.3,10.4-15.5,13.1-24.5c2.6-8.7,3.4-17.6,2.6-26.7c-0.9-9-3.4-17.7-7.6-25.7c-4.3-8.3-10.2-15.5-17.5-21.6
			c-7.3-6-15.5-10.4-24.5-13.1c-8.7-2.6-17.6-3.4-26.7-2.6C58.6,14.3,43,22,31.4,34.3c-1-0.2-2.2,0.1-2.9,1c-1.1,1.3-1,3.1,0.3,4.2
			c1.3,1.1,3.1,1,4.2-0.3c0.7-0.8,0.9-1.9,0.5-2.9c11.1-11.7,26.1-19.1,42.3-20.6c17.8-1.7,35.3,3.6,49.1,15s22.4,27.5,24.1,45.3
			s-3.6,35.3-15,49.1s-27.5,22.4-45.3,24.1c-17.8,1.7-35.3-3.6-49.1-15c-12.5-10.4-20.9-24.8-23.5-40.8C17,92.7,17.5,91.6,17.3,90.5
			z"/>
		
			<linearGradient id="SVGID_4_" gradientUnits="userSpaceOnUse" x1="-0.1224" y1="194.9896" x2="83.3071" y2="194.9896" gradientTransform="matrix(1 0 0 -1 -1.818989e-12 278)">
			<stop  offset="0" style="stop-color:#564E9F"/>
			<stop  offset="0.5158" style="stop-color:#9960A7"/>
			<stop  offset="1" style="stop-color:#56B4E0"/>
		</linearGradient>
		<path class="st3" d="M81,147.5L81,147.5c1.1,0,2-0.6,2.6-1.5c15.3-0.3,30-6.1,41.4-16.4c12.6-11.4,20.1-27,21-44.1
			c0.9-17-4.9-33.4-16.3-46c-11.4-12.6-27-20.1-44.1-21c-17-0.9-33.4,4.9-46,16.3C26.9,46.3,19.4,61.9,18.5,79
			c-0.8,15.3,3.9,30.3,13.3,42.4c-0.4,1-0.2,2.1,0.5,2.9c0.5,0.6,1.2,1,2,1.1c0.8,0.1,1.6-0.1,2.2-0.7c1.3-1,1.4-2.9,0.4-4.2
			c-0.7-0.8-1.9-1.3-2.9-1c-8.9-11.5-13.4-25.8-12.6-40.5c0.8-16.3,8-31.2,20-42.1c12.1-10.9,27.7-16.4,43.9-15.6
			c16.3,0.8,31.2,8,42.1,20c10.9,12.1,16.4,27.7,15.6,43.9c-0.8,16.3-8,31.2-20,42.1c-10.8,9.8-24.8,15.3-39.4,15.7
			c-0.5-1-1.5-1.6-2.6-1.6l0,0c-1.6,0-2.9,1.3-2.9,2.9c0,0.8,0.3,1.6,0.8,2.1C79.5,147.2,80.2,147.5,81,147.5z"/>
		
			<linearGradient id="SVGID_5_" gradientUnits="userSpaceOnUse" x1="-0.1224" y1="195.699" x2="83.3071" y2="195.699" gradientTransform="matrix(1 0 0 -1 -1.818989e-12 278)">
			<stop  offset="0" style="stop-color:#564E9F"/>
			<stop  offset="0.5158" style="stop-color:#9960A7"/>
			<stop  offset="1" style="stop-color:#56B4E0"/>
		</linearGradient>
		<path class="st4" d="M115.9,41c0.6,0.5,1.4,0.7,2.2,0.6c0.8-0.1,1.5-0.5,2-1.1c1-1.3,0.8-3.1-0.5-4.2c-0.8-0.7-2-0.8-2.9-0.4
			c-11-8.1-24.5-12.1-38.1-11.2c-15.4,1-29.4,7.9-39.6,19.6C28.8,55.9,23.7,70.7,24.7,86.1c0.9,14,6.9,27,16.7,36.9
			c0.9,0.9,1.9,1.8,2.8,2.6c10.6,9.3,23.9,14.3,37.9,14.3c1.3,0,2.6-0.1,3.9-0.1c15.4-1,29.4-7.9,39.6-19.6
			c9-10.3,14.1-23.5,14.3-37.1c0.9-0.5,1.4-1.5,1.4-2.6c0-1.6-1.4-2.9-3-2.9c-0.8,0-1.5,0.4-2.1,0.9c-0.5,0.5-0.8,1.3-0.8,2.1
			c0,1.1,0.7,2.1,1.6,2.6c-0.2,12.9-5,25.4-13.5,35.2c-9.6,11-23,17.6-37.6,18.6c-14.6,1-28.7-3.8-39.7-13.4s-17.6-23-18.6-37.6
			c-1-14.6,3.8-28.7,13.4-39.7s23-17.6,37.6-18.6c12.9-0.8,25.8,2.9,36.1,10.6C114.6,39.2,115,40.4,115.9,41z"/>
		<g>
			<g>
				<g>
					<g>
						<defs>
							<path id="SVGID_6_" d="M52.9,57.6c-5.4,0.5-10.1,2.6-13.9,6.6s-5.9,8.6-6.2,14c-0.4,6.3,1.7,11.7,6,16.3c2,2.2,4.4,3.9,7.1,5
								c2.8,1.2,5.7,1.9,8.8,1.9c4.3,0,8.4-1.2,11.9-3.6c0.7-0.5,1-1.4,0.5-2.2l-2.5-3.7c-0.5-0.7-1.4-1-2.2-0.5
								c-2.3,1.5-4.9,2.2-7.7,2.2c-3.9,0-7.3-1.4-10.1-4.2c-2.8-2.8-4.2-6.2-4.2-10.2c0.1-3.7,1.3-6.9,3.9-9.6
								c2.5-2.7,5.6-4.2,9.3-4.5c3.2-0.3,6.2,0.5,8.8,2.2c0.5,0.3,1,0.3,1.2,0.2c0.3-0.1,0.7-0.2,1-0.7l2.5-3.7
								c0.5-0.7,0.3-1.7-0.5-2.2c-3.6-2.3-7.6-3.6-11.8-3.6C54.1,57.5,53.6,57.5,52.9,57.6"/>
						</defs>
						<clipPath id="SVGID_7_">
							<use xlink:href="#SVGID_6_"  style="overflow:visible;"/>
						</clipPath>
						
							<linearGradient id="SVGID_8_" gradientUnits="userSpaceOnUse" x1="-1.2403" y1="198.6161" x2="82.1892" y2="198.6161" gradientTransform="matrix(1 0 0 -1 -1.818989e-12 278)">
							<stop  offset="0" style="stop-color:#564E9F"/>
							<stop  offset="0.5158" style="stop-color:#9960A7"/>
							<stop  offset="1" style="stop-color:#56B4E0"/>
						</linearGradient>
						<polygon class="st5" points="32.4,57.1 68,57.5 67.5,101.7 32,101.3 						"/>
					</g>
				</g>
			</g>
			<g>
				<g>
					<g>
						<defs>
							<path id="SVGID_9_" d="M76.9,57.5c-1,0-1.6,0.7-1.6,1.6v40.6c0,1,0.7,1.6,1.6,1.6h4.5c1,0,1.6-0.7,1.6-1.6V59.1
								c0-1-0.7-1.6-1.6-1.6L76.9,57.5L76.9,57.5z"/>
						</defs>
						<clipPath id="SVGID_10_">
							<use xlink:href="#SVGID_9_"  style="overflow:visible;"/>
						</clipPath>
						
							<linearGradient id="SVGID_11_" gradientUnits="userSpaceOnUse" x1="-1.2403" y1="198.6161" x2="82.1892" y2="198.6161" gradientTransform="matrix(1 0 0 -1 -1.818989e-12 278)">
							<stop  offset="0" style="stop-color:#564E9F"/>
							<stop  offset="0.5158" style="stop-color:#9960A7"/>
							<stop  offset="1" style="stop-color:#56B4E0"/>
						</linearGradient>
						<polygon class="st6" points="75.4,57.4 83.5,57.5 83.1,101.4 75,101.3 						"/>
					</g>
				</g>
			</g>
			<g>
				<g>
					<g>
						<defs>
							<path id="SVGID_12_" d="M125.5,57.5c-0.7,0-1.2,0.3-1.6,0.7L110.7,73L97.4,58.2c-0.5-0.5-1-0.7-1.6-0.7h-1.7
								c-1,0-1.6,0.7-1.6,1.6v40.6c0,1,0.7,1.6,1.6,1.6h4.3c1,0,1.6-0.7,1.6-1.6V72.2l9.6,10.7c0.3,0.4,0.7,0.5,1.1,0.5
								c0.3,0,0.7-0.1,1.2-0.5l9.6-10.7v27.6c0,1,0.7,1.6,1.6,1.6h4.3c1,0,1.6-0.7,1.6-1.6V59.1c0-1-0.7-1.6-1.6-1.6L125.5,57.5
								L125.5,57.5z"/>
						</defs>
						<clipPath id="SVGID_13_">
							<use xlink:href="#SVGID_12_"  style="overflow:visible;"/>
						</clipPath>
						
							<linearGradient id="SVGID_14_" gradientUnits="userSpaceOnUse" x1="-1.2403" y1="198.6161" x2="82.1892" y2="198.6161" gradientTransform="matrix(1 0 0 -1 -1.818989e-12 278)">
							<stop  offset="0" style="stop-color:#564E9F"/>
							<stop  offset="0.5158" style="stop-color:#9960A7"/>
							<stop  offset="1" style="stop-color:#56B4E0"/>
						</linearGradient>
						<polygon class="st7" points="92.5,57.1 129.2,57.5 128.7,101.7 92,101.3 						"/>
					</g>
				</g>
			</g>
		</g>
	</g>
	<g>
		<g>
			<defs>
				<path id="SVGID_64_" d="M196.2,57.4c-5.5,0.5-10.1,2.7-14,6.6c-3.9,4-6,8.7-6.3,14.2c-0.4,6.3,1.7,11.8,6.1,16.5
					c2.1,2.2,4.5,3.9,7.2,5c2.8,1.2,5.8,1.9,8.9,1.9c4.4,0,8.4-1.2,12-3.6c0.8-0.5,0.9-1.4,0.5-2.2l-2.6-3.8
					c-0.5-0.8-1.4-0.9-2.2-0.5c-2.4,1.5-4.9,2.3-7.8,2.3c-4,0-7.4-1.4-10.2-4.3s-4.3-6.3-4.2-10.3c0.1-3.7,1.3-6.9,3.9-9.7
					c2.6-2.7,5.7-4.3,9.4-4.5c3.2-0.3,6.3,0.5,8.9,2.3c0.5,0.3,0.9,0.3,1.2,0.2c0.3-0.1,0.7-0.2,0.9-0.7l2.6-3.8
					c0.5-0.8,0.3-1.7-0.5-2.2c-3.6-2.4-7.7-3.6-11.9-3.6C197.4,57.3,196.9,57.3,196.2,57.4"/>
			</defs>
			<clipPath id="SVGID_15_">
				<use xlink:href="#SVGID_64_"  style="overflow:visible;"/>
			</clipPath>
			
				<linearGradient id="SVGID_16_" gradientUnits="userSpaceOnUse" x1="104.1802" y1="276.8945" x2="105.0299" y2="276.8945" gradientTransform="matrix(215.2267 2.2445 -2.2445 215.2267 -21836.8164 -59751.875)">
				<stop  offset="0" style="stop-color:#554C9E"/>
				<stop  offset="0.5158" style="stop-color:#985FA6"/>
				<stop  offset="1" style="stop-color:#54B4E0"/>
			</linearGradient>
			<polygon class="st8" points="175.6,56.9 211.5,57.3 211,101.9 175.1,101.6 			"/>
		</g>
	</g>
	<g>
		<g>
			<defs>
				<path id="SVGID_67_" d="M216,57.3c-0.9,0-1.6,0.7-1.6,1.6V100c0,0.9,0.7,1.6,1.6,1.6h23.2c0.9,0,1.6-0.7,1.6-1.6v-4.5
					c0-0.9-0.7-1.6-1.6-1.6h-17.1v-35c0-0.9-0.7-1.6-1.6-1.6H216z"/>
			</defs>
			<clipPath id="SVGID_17_">
				<use xlink:href="#SVGID_67_"  style="overflow:visible;"/>
			</clipPath>
			
				<linearGradient id="SVGID_18_" gradientUnits="userSpaceOnUse" x1="104.1802" y1="276.894" x2="105.0299" y2="276.894" gradientTransform="matrix(215.2267 2.2445 -2.2445 215.2267 -21836.8125 -59752.1328)">
				<stop  offset="0" style="stop-color:#554C9E"/>
				<stop  offset="0.5158" style="stop-color:#985FA6"/>
				<stop  offset="1" style="stop-color:#54B4E0"/>
			</linearGradient>
			<polygon class="st9" points="214.4,57 241.3,57.3 240.8,101.8 213.9,101.6 			"/>
		</g>
	</g>
	<g>
		<g>
			<defs>
				<path id="SVGID_70_" d="M253.8,89.6c-2.8-2.8-4.2-6.2-4.2-10.1c0-4,1.4-7.3,4.2-10.1c2.8-2.8,6.2-4.2,10.1-4.2s7.3,1.4,10.1,4.2
					c2.8,2.8,4.2,6.2,4.2,10.1c0,4-1.4,7.3-4.2,10.1c-2.8,2.8-6.2,4.2-10.1,4.2S256.7,92.5,253.8,89.6 M248.4,63.8
					c-4.3,4.3-6.4,9.6-6.4,15.6s2.2,11.3,6.4,15.6c4.3,4.3,9.6,6.4,15.6,6.4c6.1,0,11.3-2.2,15.6-6.4c4.3-4.3,6.4-9.6,6.4-15.6
					s-2.2-11.3-6.4-15.6c-4.3-4.3-9.6-6.4-15.6-6.4C257.9,57.3,252.7,59.5,248.4,63.8"/>
			</defs>
			<clipPath id="SVGID_19_">
				<use xlink:href="#SVGID_70_"  style="overflow:visible;"/>
			</clipPath>
			
				<linearGradient id="SVGID_20_" gradientUnits="userSpaceOnUse" x1="104.1802" y1="276.8948" x2="105.0299" y2="276.8948" gradientTransform="matrix(215.2267 2.2445 -2.2445 215.2267 -21836.8066 -59752.6797)">
				<stop  offset="0" style="stop-color:#554C9E"/>
				<stop  offset="0.5158" style="stop-color:#985FA6"/>
				<stop  offset="1" style="stop-color:#54B4E0"/>
			</linearGradient>
			<polygon class="st10" points="241.9,56.8 286.6,57.3 286.1,102 241.4,101.6 			"/>
		</g>
	</g>
	<g>
		<g>
			<defs>
				<path id="SVGID_73_" d="M318,57.3c-0.9,0-1.6,0.7-1.6,1.6v26.4c0,2.4-0.9,4.5-2.7,6.2c-1.8,1.7-3.8,2.5-6.3,2.4
					c-2.3-0.1-4.2-0.9-5.8-2.7s-2.4-3.7-2.4-6.1V58.9c0-0.9-0.7-1.6-1.6-1.6h-4.5c-0.9,0-1.6,0.7-1.6,1.6v26.1
					c0,4.5,1.6,8.4,4.8,11.7c3.1,3.2,6.9,4.8,11.3,4.8c0.1,0,0.2,0,0.3,0c4.4-0.1,8.1-1.7,11.3-4.8c3.1-3.1,4.6-6.9,4.6-11.4V58.9
					c0-0.9-0.7-1.6-1.6-1.6H318z"/>
			</defs>
			<clipPath id="SVGID_21_">
				<use xlink:href="#SVGID_73_"  style="overflow:visible;"/>
			</clipPath>
			
				<linearGradient id="SVGID_22_" gradientUnits="userSpaceOnUse" x1="104.1802" y1="276.8956" x2="105.0299" y2="276.8956" gradientTransform="matrix(215.2267 2.2445 -2.2445 215.2267 -21836.8008 -59753.3047)">
				<stop  offset="0" style="stop-color:#554C9E"/>
				<stop  offset="0.5158" style="stop-color:#985FA6"/>
				<stop  offset="1" style="stop-color:#54B4E0"/>
			</linearGradient>
			<polygon class="st11" points="291.6,57 324.5,57.3 324,101.8 291.2,101.6 			"/>
		</g>
	</g>
	<g>
		<g>
			<defs>
				<path id="SVGID_76_" d="M339.4,65h7.1c4.1,0,7.4,1.4,10.2,4.2c2.8,2.8,4.3,6.2,4.3,10.2c0,4-1.4,7.3-4.3,10.2
					c-2.8,2.8-6.2,4.3-10.2,4.3h-7.1V65z M333.2,57.2c-0.9,0-1.6,0.7-1.6,1.6v41.1c0,0.9,0.7,1.6,1.6,1.6h12.9
					c6.1,0,11.4-2.1,15.7-6.3c4.4-4.2,6.6-9.4,6.8-15.4c0.1-6.2-2-11.6-6.3-15.9s-9.7-6.6-15.8-6.6
					C346.5,57.2,333.2,57.2,333.2,57.2z"/>
			</defs>
			<clipPath id="SVGID_23_">
				<use xlink:href="#SVGID_76_"  style="overflow:visible;"/>
			</clipPath>
			
				<linearGradient id="SVGID_24_" gradientUnits="userSpaceOnUse" x1="104.1802" y1="276.895" x2="105.0299" y2="276.895" gradientTransform="matrix(215.2267 2.2445 -2.2445 215.2267 -21836.7969 -59753.6641)">
				<stop  offset="0" style="stop-color:#554C9E"/>
				<stop  offset="0.5158" style="stop-color:#985FA6"/>
				<stop  offset="1" style="stop-color:#54B4E0"/>
			</linearGradient>
			<polygon class="st12" points="331.6,56.8 369.2,57.2 368.7,101.9 331.1,101.6 			"/>
		</g>
	</g>
	<g>
		<g>
			<defs>
				<path id="SVGID_79_" d="M393.9,57.3c-0.9,0-1.6,0.7-1.6,1.6v41c0,0.9,0.7,1.6,1.6,1.6h4.5c0.9,0,1.6-0.7,1.6-1.6v-41
					c0-0.9-0.7-1.6-1.6-1.6H393.9z"/>
			</defs>
			<clipPath id="SVGID_25_">
				<use xlink:href="#SVGID_79_"  style="overflow:visible;"/>
			</clipPath>
			
				<linearGradient id="SVGID_26_" gradientUnits="userSpaceOnUse" x1="105.1826" y1="276.5566" x2="106.0323" y2="276.5566" gradientTransform="matrix(215.2267 2.2445 -2.2445 215.2267 -21837.5508 -59681.2734)">
				<stop  offset="0" style="stop-color:#554C9E"/>
				<stop  offset="0.5158" style="stop-color:#985FA6"/>
				<stop  offset="1" style="stop-color:#54B4E0"/>
			</linearGradient>
			<polygon class="st13" points="392.2,57.2 400.5,57.3 400,101.6 391.9,101.6 			"/>
		</g>
	</g>
	<g>
		<g>
			<defs>
				<path id="SVGID_82_" d="M434.6,57.3c-0.9,0-1.6,0.7-1.6,1.6v26.1l-20.3-27c-0.3-0.5-0.8-0.7-1.3-0.7h-1.9
					c-0.9,0-1.6,0.7-1.6,1.6v41.1c0,0.9,0.7,1.6,1.6,1.6h4.4c0.9,0,1.6-0.7,1.6-1.6V74.1l20.2,26.9c0.3,0.4,0.8,0.6,1.2,0.6h2.1
					c0.9,0,1.6-0.7,1.6-1.6v-41c0-0.9-0.7-1.6-1.6-1.6H434.6z"/>
			</defs>
			<clipPath id="SVGID_27_">
				<use xlink:href="#SVGID_82_"  style="overflow:visible;"/>
			</clipPath>
			
				<linearGradient id="SVGID_28_" gradientUnits="userSpaceOnUse" x1="105.1826" y1="276.5568" x2="106.0323" y2="276.5568" gradientTransform="matrix(215.2267 2.2445 -2.2445 215.2267 -21837.5488 -59681.6328)">
				<stop  offset="0" style="stop-color:#554C9E"/>
				<stop  offset="0.5158" style="stop-color:#985FA6"/>
				<stop  offset="1" style="stop-color:#54B4E0"/>
			</linearGradient>
			<polygon class="st14" points="408.1,56.9 440.9,57.3 440.5,101.8 407.6,101.6 			"/>
		</g>
	</g>
	<g>
		<g>
			<defs>
				<path id="SVGID_85_" d="M450.1,57.3c-0.9,0-1.6,0.7-1.6,1.6V100c0,0.9,0.7,1.6,1.6,1.6h4.5c0.9,0,1.6-0.7,1.6-1.6V83.3h14.6
					c0.9,0,1.6-0.7,1.6-1.6v-4.5c0-0.9-0.7-1.6-1.6-1.6h-14.6V65h19.2c0.9,0,1.6-0.7,1.6-1.6v-4.5c0-0.9-0.7-1.6-1.6-1.6L450.1,57.3
					L450.1,57.3z"/>
			</defs>
			<clipPath id="SVGID_29_">
				<use xlink:href="#SVGID_85_"  style="overflow:visible;"/>
			</clipPath>
			
				<linearGradient id="SVGID_30_" gradientUnits="userSpaceOnUse" x1="105.1826" y1="276.5573" x2="106.0323" y2="276.5573" gradientTransform="matrix(215.2267 2.2445 -2.2445 215.2267 -21837.543 -59682.125)">
				<stop  offset="0" style="stop-color:#554C9E"/>
				<stop  offset="0.5158" style="stop-color:#985FA6"/>
				<stop  offset="1" style="stop-color:#54B4E0"/>
			</linearGradient>
			<polygon class="st15" points="448.5,57 477.5,57.3 477,101.8 448.1,101.6 			"/>
		</g>
	</g>
	<g>
		<g>
			<defs>
				<path id="SVGID_88_" d="M488.9,89.6c-2.8-2.8-4.2-6.2-4.2-10.1c0-4,1.4-7.3,4.2-10.1c2.8-2.8,6.2-4.2,10.1-4.2
					c4,0,7.3,1.4,10.1,4.2c2.8,2.8,4.2,6.2,4.2,10.1c0,4-1.4,7.3-4.2,10.1c-2.8,2.8-6.2,4.2-10.1,4.2
					C495,93.8,491.6,92.5,488.9,89.6 M483.4,63.8c-4.3,4.3-6.4,9.6-6.4,15.6s2.2,11.3,6.4,15.6c4.3,4.3,9.6,6.4,15.6,6.4
					c6.1,0,11.3-2.2,15.6-6.4c4.3-4.3,6.4-9.6,6.4-15.6s-2.2-11.3-6.4-15.6c-4.3-4.3-9.6-6.4-15.6-6.4
					C493,57.4,487.7,59.5,483.4,63.8"/>
			</defs>
			<clipPath id="SVGID_31_">
				<use xlink:href="#SVGID_88_"  style="overflow:visible;"/>
			</clipPath>
			
				<linearGradient id="SVGID_32_" gradientUnits="userSpaceOnUse" x1="105.1826" y1="276.5575" x2="106.0323" y2="276.5575" gradientTransform="matrix(215.2267 2.2445 -2.2445 215.2267 -21837.5391 -59682.5313)">
				<stop  offset="0" style="stop-color:#554C9E"/>
				<stop  offset="0.5158" style="stop-color:#985FA6"/>
				<stop  offset="1" style="stop-color:#54B4E0"/>
			</linearGradient>
			<polygon class="st16" points="476.9,56.8 521.6,57.3 521.1,102 476.5,101.6 			"/>
		</g>
	</g>
	<g>
		<g>
			<defs>
				<path id="SVGID_91_" d="M535,65h9.2c1.5,0,2.7,0.5,3.8,1.5c1,1,1.6,2.3,1.6,3.8c0,1.5-0.5,2.7-1.6,3.8c-1,1-2.3,1.6-3.8,1.6H535
					V65z M528.9,57.3c-0.9,0-1.6,0.7-1.6,1.6v40.9c0,0.9,0.7,1.6,1.6,1.6h4.5c0.9,0,1.6-0.7,1.6-1.6V83.4h5.3l9.5,17.2
					c0.3,0.6,0.8,0.9,1.4,0.9h5.2c0.6,0,1.1-0.3,1.3-0.8c0.3-0.5,0.3-1,0.1-1.5l-9.2-16.7c2.2-0.8,4.1-2.1,5.7-3.9
					c1.9-2.3,2.9-4.9,3-8c0.1-3.7-1.1-6.8-3.7-9.5c-2.6-2.7-5.7-4-9.4-4C544.3,57.3,528.9,57.3,528.9,57.3z"/>
			</defs>
			<clipPath id="SVGID_33_">
				<use xlink:href="#SVGID_91_"  style="overflow:visible;"/>
			</clipPath>
			
				<linearGradient id="SVGID_34_" gradientUnits="userSpaceOnUse" x1="105.1826" y1="276.5578" x2="106.0323" y2="276.5578" gradientTransform="matrix(215.2267 2.2445 -2.2445 215.2267 -21837.5332 -59683.0625)">
				<stop  offset="0" style="stop-color:#554C9E"/>
				<stop  offset="0.5158" style="stop-color:#985FA6"/>
				<stop  offset="1" style="stop-color:#54B4E0"/>
			</linearGradient>
			<polygon class="st17" points="527.4,57 558.4,57.3 558,101.8 526.9,101.6 			"/>
		</g>
	</g>
	<g>
		<g>
			<defs>
				<path id="SVGID_94_" d="M596.2,57.3c-0.7,0-1.2,0.3-1.6,0.8l-13.4,15l-13.4-15c-0.5-0.5-1-0.8-1.6-0.8h-1.7
					c-0.9,0-1.6,0.7-1.6,1.6v41c0,0.9,0.7,1.6,1.6,1.6h4.4c0.9,0,1.6-0.7,1.6-1.6V72.2l9.7,10.8c0.3,0.4,0.7,0.6,1.1,0.6
					c0.3,0,0.8-0.1,1.2-0.6l9.7-10.8V100c0,0.9,0.7,1.6,1.6,1.6h4.4c0.9,0,1.6-0.7,1.6-1.6V58.9c0-0.9-0.7-1.6-1.6-1.6H596.2z"/>
			</defs>
			<clipPath id="SVGID_35_">
				<use xlink:href="#SVGID_94_"  style="overflow:visible;"/>
			</clipPath>
			
				<linearGradient id="SVGID_36_" gradientUnits="userSpaceOnUse" x1="105.1826" y1="276.5582" x2="106.0323" y2="276.5582" gradientTransform="matrix(215.2267 2.2445 -2.2445 215.2267 -21837.5273 -59683.5469)">
				<stop  offset="0" style="stop-color:#554C9E"/>
				<stop  offset="0.5158" style="stop-color:#985FA6"/>
				<stop  offset="1" style="stop-color:#54B4E0"/>
			</linearGradient>
			<polygon class="st18" points="563,56.9 600,57.3 599.5,101.9 562.5,101.6 			"/>
		</g>
	</g>
	<g>
		<g>
			<defs>
				<path id="SVGID_97_" d="M623.7,69.3l3.5,8.3h-6.9L623.7,69.3z M621.7,57.2c-0.6,0-1.1,0.4-1.4,0.9l-17.1,41
					c-0.3,0.5-0.2,1,0.1,1.5c0.3,0.5,0.8,0.7,1.3,0.7h4.6c0.7,0,1.2-0.4,1.4-0.9l6.3-15.3h13.2l6.3,15.3c0.2,0.7,0.8,1,1.5,1h4.6
					c0.6,0,1-0.3,1.3-0.7c0.3-0.5,0.4-1,0.1-1.5l-17.1-41.1c-0.2-0.7-0.8-1-1.5-1L621.7,57.2L621.7,57.2z"/>
			</defs>
			<clipPath id="SVGID_37_">
				<use xlink:href="#SVGID_97_"  style="overflow:visible;"/>
			</clipPath>
			
				<linearGradient id="SVGID_38_" gradientUnits="userSpaceOnUse" x1="105.1826" y1="276.5581" x2="106.0323" y2="276.5581" gradientTransform="matrix(215.2267 2.2445 -2.2445 215.2267 -21837.5234 -59684.0078)">
				<stop  offset="0" style="stop-color:#554C9E"/>
				<stop  offset="0.5158" style="stop-color:#985FA6"/>
				<stop  offset="1" style="stop-color:#54B4E0"/>
			</linearGradient>
			<polygon class="st19" points="603,56.8 644.9,57.2 644.5,101.9 602.5,101.6 			"/>
		</g>
	</g>
	<g>
		<g>
			<defs>
				<path id="SVGID_100_" d="M646.2,57.3c-0.9,0-1.6,0.7-1.6,1.6v4.5c0,0.9,0.7,1.6,1.6,1.6h9.8v35c0,0.9,0.7,1.6,1.6,1.6h4.5
					c0.9,0,1.6-0.7,1.6-1.6v-35h9.8c0.9,0,1.6-0.7,1.6-1.6v-4.5c0-0.9-0.7-1.6-1.6-1.6H646.2z"/>
			</defs>
			<clipPath id="SVGID_39_">
				<use xlink:href="#SVGID_100_"  style="overflow:visible;"/>
			</clipPath>
			
				<linearGradient id="SVGID_40_" gradientUnits="userSpaceOnUse" x1="105.1826" y1="276.5592" x2="106.0323" y2="276.5592" gradientTransform="matrix(215.2267 2.2445 -2.2445 215.2267 -21837.5176 -59684.5781)">
				<stop  offset="0" style="stop-color:#554C9E"/>
				<stop  offset="0.5158" style="stop-color:#985FA6"/>
				<stop  offset="1" style="stop-color:#54B4E0"/>
			</linearGradient>
			<polygon class="st20" points="644.6,57 675.4,57.3 675,101.8 644.1,101.6 			"/>
		</g>
	</g>
	<g>
		<g>
			<defs>
				<path id="SVGID_103_" d="M680.4,57.3c-0.9,0-1.6,0.7-1.6,1.6v41c0,0.9,0.7,1.6,1.6,1.6h4.5c0.9,0,1.6-0.7,1.6-1.6v-41
					c0-0.9-0.7-1.6-1.6-1.6H680.4z"/>
			</defs>
			<clipPath id="SVGID_41_">
				<use xlink:href="#SVGID_103_"  style="overflow:visible;"/>
			</clipPath>
			
				<linearGradient id="SVGID_42_" gradientUnits="userSpaceOnUse" x1="105.1826" y1="276.5591" x2="106.0323" y2="276.5591" gradientTransform="matrix(215.2267 2.2445 -2.2445 215.2267 -21837.5156 -59684.7891)">
				<stop  offset="0" style="stop-color:#554C9E"/>
				<stop  offset="0.5158" style="stop-color:#985FA6"/>
				<stop  offset="1" style="stop-color:#54B4E0"/>
			</linearGradient>
			<polygon class="st21" points="678.8,57.2 687,57.3 686.5,101.6 678.4,101.6 			"/>
		</g>
	</g>
	<g>
		<g>
			<defs>
				<path id="SVGID_106_" d="M703.5,89.6c-2.8-2.8-4.2-6.2-4.2-10.1c0-4,1.4-7.3,4.2-10.1c2.8-2.8,6.2-4.2,10.1-4.2
					s7.3,1.4,10.1,4.2c2.8,2.8,4.2,6.2,4.2,10.1c0,4-1.4,7.3-4.2,10.1c-2.8,2.8-6.2,4.2-10.1,4.2S706.3,92.5,703.5,89.6 M698,63.8
					c-4.3,4.3-6.4,9.6-6.4,15.6s2.2,11.3,6.4,15.6c4.3,4.3,9.6,6.4,15.6,6.4s11.3-2.2,15.6-6.4c4.3-4.3,6.4-9.6,6.4-15.6
					s-2.2-11.3-6.4-15.6c-4.3-4.3-9.6-6.4-15.6-6.4C707.6,57.3,702.3,59.5,698,63.8"/>
			</defs>
			<clipPath id="SVGID_43_">
				<use xlink:href="#SVGID_106_"  style="overflow:visible;"/>
			</clipPath>
			
				<linearGradient id="SVGID_44_" gradientUnits="userSpaceOnUse" x1="105.1826" y1="276.5593" x2="106.0323" y2="276.5593" gradientTransform="matrix(215.2267 2.2445 -2.2445 215.2267 -21837.5117 -59685.1641)">
				<stop  offset="0" style="stop-color:#554C9E"/>
				<stop  offset="0.5158" style="stop-color:#985FA6"/>
				<stop  offset="1" style="stop-color:#54B4E0"/>
			</linearGradient>
			<polygon class="st22" points="691.5,56.8 736.2,57.3 735.7,102 691.1,101.6 			"/>
		</g>
	</g>
	<g>
		<g>
			<defs>
				<path id="SVGID_109_" d="M768.5,57.3c-0.9,0-1.6,0.7-1.6,1.6v26.1l-20.3-27c-0.3-0.5-0.8-0.7-1.3-0.7h-1.9
					c-0.9,0-1.6,0.7-1.6,1.6v41.1c0,0.9,0.7,1.6,1.6,1.6h4.4c0.9,0,1.6-0.7,1.6-1.6V74.1l20.2,26.9c0.3,0.4,0.8,0.6,1.2,0.6h2.1
					c0.9,0,1.6-0.7,1.6-1.6v-41c0-0.9-0.7-1.6-1.6-1.6H768.5z"/>
			</defs>
			<clipPath id="SVGID_45_">
				<use xlink:href="#SVGID_109_"  style="overflow:visible;"/>
			</clipPath>
			
				<linearGradient id="SVGID_46_" gradientUnits="userSpaceOnUse" x1="105.1826" y1="276.5597" x2="106.0323" y2="276.5597" gradientTransform="matrix(215.2267 2.2445 -2.2445 215.2267 -21837.5059 -59685.7344)">
				<stop  offset="0" style="stop-color:#554C9E"/>
				<stop  offset="0.5158" style="stop-color:#985FA6"/>
				<stop  offset="1" style="stop-color:#54B4E0"/>
			</linearGradient>
			<polygon class="st23" points="742,56.9 774.9,57.3 774.4,101.8 741.5,101.6 			"/>
		</g>
	</g>
	<g>
		<g>
			<defs>
				<path id="SVGID_112_" d="M835,57.3c-0.7,0-1.2,0.3-1.6,0.8l-13.5,15l-13.4-15c-0.5-0.5-1-0.8-1.6-0.8h-1.7
					c-0.9,0-1.6,0.7-1.6,1.6v41c0,0.9,0.7,1.6,1.6,1.6h4.4c0.9,0,1.6-0.7,1.6-1.6V72.2l9.7,10.8c0.3,0.4,0.7,0.6,1.1,0.6
					c0.3,0,0.8-0.1,1.2-0.6l9.7-10.8V100c0,0.9,0.7,1.6,1.6,1.6h4.4c0.9,0,1.6-0.7,1.6-1.6V58.9c0-0.9-0.7-1.6-1.6-1.6H835z"/>
			</defs>
			<clipPath id="SVGID_47_">
				<use xlink:href="#SVGID_112_"  style="overflow:visible;"/>
			</clipPath>
			
				<linearGradient id="SVGID_48_" gradientUnits="userSpaceOnUse" x1="107.0815" y1="276.2099" x2="107.9312" y2="276.2099" gradientTransform="matrix(215.2267 2.2445 -2.2445 215.2267 -21838.2832 -59611.0781)">
				<stop  offset="0" style="stop-color:#554C9E"/>
				<stop  offset="0.5158" style="stop-color:#985FA6"/>
				<stop  offset="1" style="stop-color:#54B4E0"/>
			</linearGradient>
			<polygon class="st24" points="801.6,56.9 838.7,57.3 838.2,101.9 801.2,101.6 			"/>
		</g>
	</g>
	<g>
		<g>
			<defs>
				<path id="SVGID_115_" d="M855.2,89.6c-2.8-2.8-4.2-6.2-4.2-10.1c0-4,1.4-7.3,4.2-10.1c2.8-2.8,6.2-4.2,10.1-4.2
					s7.3,1.4,10.1,4.2c2.8,2.8,4.2,6.2,4.2,10.1c0,4-1.4,7.3-4.2,10.1c-2.8,2.8-6.2,4.2-10.1,4.2S858,92.5,855.2,89.6 M849.8,63.8
					c-4.3,4.3-6.4,9.6-6.4,15.6s2.2,11.3,6.4,15.6c4.3,4.3,9.6,6.4,15.6,6.4s11.3-2.2,15.6-6.4c4.3-4.3,6.4-9.6,6.4-15.6
					s-2.2-11.3-6.4-15.6c-4.3-4.3-9.6-6.4-15.6-6.4C859.3,57.3,854,59.5,849.8,63.8"/>
			</defs>
			<clipPath id="SVGID_49_">
				<use xlink:href="#SVGID_115_"  style="overflow:visible;"/>
			</clipPath>
			
				<linearGradient id="SVGID_50_" gradientUnits="userSpaceOnUse" x1="107.0815" y1="276.2103" x2="107.9312" y2="276.2103" gradientTransform="matrix(215.2267 2.2445 -2.2445 215.2267 -21838.2773 -59611.6328)">
				<stop  offset="0" style="stop-color:#554C9E"/>
				<stop  offset="0.5158" style="stop-color:#985FA6"/>
				<stop  offset="1" style="stop-color:#54B4E0"/>
			</linearGradient>
			<polygon class="st25" points="843.2,56.8 888,57.3 887.5,102 842.8,101.6 			"/>
		</g>
	</g>
	<g>
		<g>
			<defs>
				<path id="SVGID_118_" d="M901.4,65h7.1c4.1,0,7.4,1.4,10.2,4.2c2.8,2.8,4.3,6.2,4.3,10.2c0,4.1-1.4,7.3-4.3,10.2
					c-2.8,2.8-6.2,4.3-10.2,4.3h-7.1V65z M895.3,57.2c-0.9,0-1.6,0.7-1.6,1.6v41.1c0,0.9,0.7,1.6,1.6,1.6h12.9
					c6.1,0,11.4-2.1,15.7-6.3c4.4-4.2,6.6-9.4,6.8-15.4c0.1-6.2-2-11.6-6.3-15.9c-4.4-4.4-9.7-6.6-15.8-6.6
					C908.5,57.2,895.3,57.2,895.3,57.2z"/>
			</defs>
			<clipPath id="SVGID_51_">
				<use xlink:href="#SVGID_118_"  style="overflow:visible;"/>
			</clipPath>
			
				<linearGradient id="SVGID_52_" gradientUnits="userSpaceOnUse" x1="107.0815" y1="276.2101" x2="107.9312" y2="276.2101" gradientTransform="matrix(215.2267 2.2445 -2.2445 215.2267 -21838.2734 -59612.1328)">
				<stop  offset="0" style="stop-color:#554C9E"/>
				<stop  offset="0.5158" style="stop-color:#985FA6"/>
				<stop  offset="1" style="stop-color:#54B4E0"/>
			</linearGradient>
			<polygon class="st26" points="893.6,56.8 931.3,57.2 930.8,101.9 893.2,101.6 			"/>
		</g>
	</g>
	<g>
		<g>
			<defs>
				<path id="SVGID_121_" d="M938.5,57.3c-0.9,0-1.6,0.7-1.6,1.6v41c0,0.9,0.7,1.6,1.6,1.6h27.2c0.9,0,1.6-0.7,1.6-1.6v-4.5
					c0-0.9-0.7-1.6-1.6-1.6h-21V83.3h14.9c0.9,0,1.6-0.7,1.6-1.6v-4.5c0-0.9-0.7-1.6-1.6-1.6h-14.9V65.1h21c0.9,0,1.6-0.7,1.6-1.6
					v-4.5c0-0.9-0.7-1.6-1.6-1.6H938.5z"/>
			</defs>
			<clipPath id="SVGID_53_">
				<use xlink:href="#SVGID_121_"  style="overflow:visible;"/>
			</clipPath>
			
				<linearGradient id="SVGID_54_" gradientUnits="userSpaceOnUse" x1="107.0815" y1="276.211" x2="107.9312" y2="276.211" gradientTransform="matrix(215.2267 2.2445 -2.2445 215.2267 -21838.2676 -59612.6953)">
				<stop  offset="0" style="stop-color:#554C9E"/>
				<stop  offset="0.5158" style="stop-color:#985FA6"/>
				<stop  offset="1" style="stop-color:#54B4E0"/>
			</linearGradient>
			<polygon class="st27" points="937,57 967.8,57.3 967.4,101.8 936.6,101.6 			"/>
		</g>
	</g>
	<g>
		<g>
			<defs>
				<path id="SVGID_124_" d="M973.5,57.3c-0.9,0-1.6,0.7-1.6,1.6V100c0,0.9,0.7,1.6,1.6,1.6h23.2c0.9,0,1.6-0.7,1.6-1.6v-4.5
					c0-0.9-0.7-1.6-1.6-1.6h-17.1v-35c0-0.9-0.7-1.6-1.6-1.6H973.5z"/>
			</defs>
			<clipPath id="SVGID_55_">
				<use xlink:href="#SVGID_124_"  style="overflow:visible;"/>
			</clipPath>
			
				<linearGradient id="SVGID_56_" gradientUnits="userSpaceOnUse" x1="107.0815" y1="276.2109" x2="107.9312" y2="276.2109" gradientTransform="matrix(215.2267 2.2445 -2.2445 215.2267 -21838.2637 -59613.0078)">
				<stop  offset="0" style="stop-color:#554C9E"/>
				<stop  offset="0.5158" style="stop-color:#985FA6"/>
				<stop  offset="1" style="stop-color:#54B4E0"/>
			</linearGradient>
			<polygon class="st28" points="972,57 998.8,57.3 998.3,101.8 971.5,101.6 			"/>
		</g>
	</g>
</g>
</svg>
